<?xml version="1.0" standalone="no"?><svg xmlns="http://www.w3.org/2000/svg" viewBox="0 0 1440 320"><path fill="#0275d8" fill-opacity="0.8" d="M0,96L14.1,112C28.2,128,56,160,85,186.7C112.9,213,141,235,169,250.7C197.6,267,226,277,254,245.3C282.4,213,311,139,339,106.7C367.1,75,395,85,424,101.3C451.8,117,480,139,508,144C536.5,149,565,139,593,160C621.2,181,649,235,678,234.7C705.9,235,734,181,762,170.7C790.6,160,819,192,847,186.7C875.3,181,904,139,932,101.3C960,64,988,32,1016,26.7C1044.7,21,1073,43,1101,48C1129.4,53,1158,43,1186,42.7C1214.1,43,1242,53,1271,53.3C1298.8,53,1327,43,1355,53.3C1383.5,64,1412,96,1426,112L1440,128L1440,0L1425.9,0C1411.8,0,1384,0,1355,0C1327.1,0,1299,0,1271,0C1242.4,0,1214,0,1186,0C1157.6,0,1129,0,1101,0C1072.9,0,1045,0,1016,0C988.2,0,960,0,932,0C903.5,0,875,0,847,0C818.8,0,791,0,762,0C734.1,0,706,0,678,0C649.4,0,621,0,593,0C564.7,0,536,0,508,0C480,0,452,0,424,0C395.3,0,367,0,339,0C310.6,0,282,0,254,0C225.9,0,198,0,169,0C141.2,0,113,0,85,0C56.5,0,28,0,14,0L0,0Z"></path></svg>