<?xml version="1.0" standalone="no"?><svg xmlns="http://www.w3.org/2000/svg" viewBox="0 0 1440 320"><path fill="#0275d8" fill-opacity="0.8" d="M0,64L14.1,85.3C28.2,107,56,149,85,154.7C112.9,160,141,128,169,106.7C197.6,85,226,75,254,80C282.4,85,311,107,339,128C367.1,149,395,171,424,192C451.8,213,480,235,508,218.7C536.5,203,565,149,593,138.7C621.2,128,649,160,678,165.3C705.9,171,734,149,762,149.3C790.6,149,819,171,847,192C875.3,213,904,235,932,229.3C960,224,988,192,1016,192C1044.7,192,1073,224,1101,224C1129.4,224,1158,192,1186,181.3C1214.1,171,1242,181,1271,165.3C1298.8,149,1327,107,1355,112C1383.5,117,1412,171,1426,197.3L1440,224L1440,0L1425.9,0C1411.8,0,1384,0,1355,0C1327.1,0,1299,0,1271,0C1242.4,0,1214,0,1186,0C1157.6,0,1129,0,1101,0C1072.9,0,1045,0,1016,0C988.2,0,960,0,932,0C903.5,0,875,0,847,0C818.8,0,791,0,762,0C734.1,0,706,0,678,0C649.4,0,621,0,593,0C564.7,0,536,0,508,0C480,0,452,0,424,0C395.3,0,367,0,339,0C310.6,0,282,0,254,0C225.9,0,198,0,169,0C141.2,0,113,0,85,0C56.5,0,28,0,14,0L0,0Z"></path></svg>