<?xml version="1.0" standalone="no"?><svg xmlns="http://www.w3.org/2000/svg" viewBox="0 0 1440 320"><path fill="#0275d8" fill-opacity="0.8" d="M0,128L14.1,117.3C28.2,107,56,85,85,96C112.9,107,141,149,169,138.7C197.6,128,226,64,254,32C282.4,0,311,0,339,16C367.1,32,395,64,424,96C451.8,128,480,160,508,165.3C536.5,171,565,149,593,122.7C621.2,96,649,64,678,85.3C705.9,107,734,181,762,181.3C790.6,181,819,107,847,69.3C875.3,32,904,32,932,42.7C960,53,988,75,1016,80C1044.7,85,1073,75,1101,85.3C1129.4,96,1158,128,1186,138.7C1214.1,149,1242,139,1271,149.3C1298.8,160,1327,192,1355,181.3C1383.5,171,1412,117,1426,90.7L1440,64L1440,0L1425.9,0C1411.8,0,1384,0,1355,0C1327.1,0,1299,0,1271,0C1242.4,0,1214,0,1186,0C1157.6,0,1129,0,1101,0C1072.9,0,1045,0,1016,0C988.2,0,960,0,932,0C903.5,0,875,0,847,0C818.8,0,791,0,762,0C734.1,0,706,0,678,0C649.4,0,621,0,593,0C564.7,0,536,0,508,0C480,0,452,0,424,0C395.3,0,367,0,339,0C310.6,0,282,0,254,0C225.9,0,198,0,169,0C141.2,0,113,0,85,0C56.5,0,28,0,14,0L0,0Z"></path></svg>