<?xml version="1.0" standalone="no"?><svg xmlns="http://www.w3.org/2000/svg" viewBox="0 0 1440 320"><path fill="#0099ff" fill-opacity="1" d="M0,256L12,245.3C24,235,48,213,72,218.7C96,224,120,256,144,245.3C168,235,192,181,216,181.3C240,181,264,235,288,240C312,245,336,203,360,181.3C384,160,408,160,432,149.3C456,139,480,117,504,112C528,107,552,117,576,112C600,107,624,85,648,96C672,107,696,149,720,154.7C744,160,768,128,792,117.3C816,107,840,117,864,138.7C888,160,912,192,936,197.3C960,203,984,181,1008,170.7C1032,160,1056,160,1080,160C1104,160,1128,160,1152,149.3C1176,139,1200,117,1224,96C1248,75,1272,53,1296,69.3C1320,85,1344,139,1368,144C1392,149,1416,107,1428,85.3L1440,64L1440,0L1428,0C1416,0,1392,0,1368,0C1344,0,1320,0,1296,0C1272,0,1248,0,1224,0C1200,0,1176,0,1152,0C1128,0,1104,0,1080,0C1056,0,1032,0,1008,0C984,0,960,0,936,0C912,0,888,0,864,0C840,0,816,0,792,0C768,0,744,0,720,0C696,0,672,0,648,0C624,0,600,0,576,0C552,0,528,0,504,0C480,0,456,0,432,0C408,0,384,0,360,0C336,0,312,0,288,0C264,0,240,0,216,0C192,0,168,0,144,0C120,0,96,0,72,0C48,0,24,0,12,0L0,0Z"></path></svg>